<?xml version="1.0" standalone="no"?>
<!DOCTYPE svg PUBLIC "-//W3C//DTD SVG 20010904//EN"
 "http://www.w3.org/TR/2001/REC-SVG-20010904/DTD/svg10.dtd">
<svg version="1.0" xmlns="http://www.w3.org/2000/svg"
 width="512.000000pt" height="512.000000pt" viewBox="0 0 512.000000 512.000000"
 preserveAspectRatio="xMidYMid meet">
<metadata>
Created by potrace 1.14, written by Peter Selinger 2001-2017
</metadata>
<g transform="translate(0.000000,512.000000) scale(0.100000,-0.100000)"
fill="#000000" stroke="none">
<path d="M946 4744 c-14 -14 -16 -203 -16 -1929 0 -1726 2 -1915 16 -1929 14
-14 161 -16 1465 -16 l1449 0 0 -151 c0 -84 -5 -159 -10 -170 -11 -19 -37 -19
-1407 -19 -1266 0 -1394 -1 -1382 -16 19 -24 235 -165 332 -218 243 -132 530
-227 827 -273 160 -24 520 -24 680 0 452 70 846 240 1190 515 488 392 799 936
897 1572 24 160 24 520 0 680 -58 375 -184 709 -379 1001 l-63 94 -3 -1311
c-2 -1205 -3 -1313 -19 -1325 -13 -12 -279 -15 -1611 -17 -877 -2 -1604 -1
-1616 2 -13 3 -28 17 -34 31 -9 20 -12 456 -12 1760 l0 1735 -144 0 c-118 0
-147 -3 -160 -16z"/>
<path d="M3405 4735 c-28 -27 -30 -42 -14 -79 21 -45 42 -47 426 -44 339 3
362 4 382 22 27 25 28 79 1 106 -19 19 -33 20 -395 20 l-376 0 -24 -25z"/>
<path d="M2046 4494 c-14 -13 -16 -51 -16 -261 l0 -245 -145 7 c-196 10 -320
0 -346 -28 -27 -30 -24 -71 7 -96 26 -21 33 -21 806 -21 l779 0 24 25 c30 30
31 54 4 89 l-20 26 -240 0 -239 0 0 140 0 140 -115 0 -115 0 0 -140 0 -140
-75 0 -75 0 0 244 c0 209 -2 247 -16 260 -12 12 -37 16 -109 16 -72 0 -97 -4
-109 -16z"/>
<path d="M3429 4499 c-25 -9 -49 -45 -49 -73 0 -7 9 -25 21 -40 l20 -26 380 0
c366 0 380 1 399 20 27 27 26 81 -1 106 -20 18 -43 19 -383 21 -215 1 -372 -2
-387 -8z"/>
<path d="M602 4394 c-22 -15 -22 -18 -22 -256 l0 -241 -69 -106 c-200 -308
-321 -627 -378 -1001 -24 -160 -24 -520 0 -680 82 -535 314 -1005 675 -1368
53 -54 67 -66 30 -27 l-68 70 0 1797 c0 1187 3 1799 10 1803 27 17 2 25 -73
25 -59 0 -89 -5 -105 -16z"/>
<path d="M3405 4225 c-28 -27 -30 -42 -13 -80 19 -43 55 -46 434 -43 330 3
353 4 373 22 27 25 28 79 1 106 -19 19 -33 20 -395 20 l-376 0 -24 -25z"/>
<path d="M3429 3989 c-25 -9 -49 -45 -49 -73 0 -7 9 -25 21 -40 l20 -26 380 0
c366 0 380 1 399 20 27 27 26 81 -1 106 -20 18 -43 19 -383 21 -215 1 -372 -2
-387 -8z"/>
<path d="M2010 3534 c-214 -46 -395 -223 -445 -437 -8 -34 -15 -79 -15 -99 l0
-38 144 0 143 0 7 42 c16 100 78 181 170 224 28 13 66 24 84 24 l32 0 0 150 0
150 -27 -1 c-16 0 -57 -7 -93 -15z"/>
<path d="M3032 3527 c-27 -29 -28 -67 -3 -98 l19 -24 557 -3 c605 -3 594 -4
614 51 10 28 -5 74 -29 87 -12 6 -232 10 -578 10 l-559 0 -21 -23z"/>
<path d="M3053 3290 c-46 -19 -57 -83 -20 -118 l23 -22 561 0 c530 0 562 1
584 18 30 25 30 75 0 105 l-22 22 -552 2 c-306 1 -562 -2 -574 -7z"/>
<path d="M3032 3017 c-27 -29 -28 -67 -3 -98 l19 -24 557 -3 c605 -3 594 -4
614 51 10 28 -5 74 -29 87 -12 6 -232 10 -578 10 l-559 0 -21 -23z"/>
<path d="M3053 2780 c-46 -19 -57 -83 -20 -118 l23 -22 561 0 c530 0 562 1
584 18 30 25 30 75 0 105 l-22 22 -552 2 c-306 1 -562 -2 -574 -7z"/>
<path d="M3427 2322 c-15 -16 -17 -49 -17 -256 0 -144 4 -245 10 -257 10 -18
23 -19 185 -19 l175 0 0 -79 c0 -113 -3 -111 184 -111 135 0 155 2 169 18 14
16 17 43 17 169 0 184 0 183 -113 183 l-77 0 0 169 c0 141 -3 172 -16 185 -13
14 -51 16 -258 16 -223 0 -244 -2 -259 -18z"/>
<path d="M1630 2183 c-25 -32 -20 -69 12 -95 19 -17 63 -18 620 -18 677 0 657
-2 658 77 0 65 23 63 -656 63 l-613 0 -21 -27z"/>
<path d="M1651 1947 c-37 -19 -48 -63 -24 -96 l20 -26 618 -3 c686 -2 655 -5
655 62 0 37 -7 49 -37 65 -32 17 -1199 15 -1232 -2z"/>
<path d="M1630 1673 c-25 -32 -20 -69 12 -95 19 -17 63 -18 620 -18 677 0 657
-2 658 77 0 65 23 63 -656 63 l-613 0 -21 -27z"/>
<path d="M965 590 c10 -11 20 -20 23 -20 3 0 -3 9 -13 20 -10 11 -20 20 -23
20 -3 0 3 -9 13 -20z"/>
<path d="M1010 556 c0 -2 8 -10 18 -17 15 -13 16 -12 3 4 -13 16 -21 21 -21
13z"/>
</g>
</svg>
